<?xml version="1.0" standalone="no"?>
<!DOCTYPE svg PUBLIC "-//W3C//DTD SVG 1.1//EN" "http://www.w3.org/Graphics/SVG/1.1/DTD/svg11.dtd" >
<svg xmlns="http://www.w3.org/2000/svg">
<metadata>Generated by IcoMoon</metadata>
<defs>
<font id="mill-icon-font" horiz-adv-x="1024">
<font-face units-per-em="1024" ascent="960" descent="-64" />
<missing-glyph horiz-adv-x="1024" />
<glyph unicode="&#x20;" horiz-adv-x="512" d="" />
<glyph unicode="&#xe900;" glyph-name="icons_action" d="M352 672c0-35.346-28.654-64-64-64s-64 28.654-64 64c0 35.346 28.654 64 64 64s64-28.654 64-64zM512 736c-35.346 0-64-28.654-64-64s28.654-64 64-64c35.346 0 64 28.654 64 64s-28.654 64-64 64zM736 608c35.346 0 64 28.654 64 64s-28.654 64-64 64c-35.346 0-64-28.654-64-64s28.654-64 64-64zM288 512c-35.346 0-64-28.654-64-64s28.654-64 64-64c35.346 0 64 28.654 64 64s-28.654 64-64 64zM512 512c-35.346 0-64-28.654-64-64s28.654-64 64-64c35.346 0 64 28.654 64 64s-28.654 64-64 64zM736 512c-35.346 0-64-28.654-64-64s28.654-64 64-64c35.346 0 64 28.654 64 64s-28.654 64-64 64zM288 288c-35.346 0-64-28.654-64-64s28.654-64 64-64c35.346 0 64 28.654 64 64s-28.654 64-64 64zM512 288c-35.346 0-64-28.654-64-64s28.654-64 64-64c35.346 0 64 28.654 64 64s-28.654 64-64 64zM736 288c-35.346 0-64-28.654-64-64s28.654-64 64-64c35.346 0 64 28.654 64 64s-28.654 64-64 64z" />
<glyph unicode="&#xe901;" glyph-name="icons_address" d="M816 720h-656v-528.96h704v528.96h-48zM816 239.040h-608v432.96h608v-432.96zM671.040 448h96.96v176h-144.96v-176h48zM671.040 576h48.96v-80h-48.96v80zM528 576h-272v48h272v-48zM528 480h-272v48h272v-48zM528 384h-272v48h272v-48z" />
<glyph unicode="&#xe902;" glyph-name="icons_alphabetical" d="M355.68 240h-35.68s0 356.16 0 528h-64v-528h-35.68c-3.485-0.065-6.285-2.905-6.285-6.399 0-1.379 0.436-2.656 1.178-3.701l67.667-95.98c1.176-1.624 3.066-2.669 5.2-2.669s4.024 1.045 5.187 2.65l67.693 96.019c0.728 1.025 1.164 2.302 1.164 3.68 0 3.535-2.865 6.4-6.4 6.4-0.015 0-0.031 0-0.046 0zM416 688h384v-64h-384v64zM416 528h288v-64h-288v64zM416 368h192v-64h-192v64zM360.8 229.92l-67.68-96c-1.176-1.624-3.066-2.669-5.2-2.669s-4.024 1.045-5.187 2.65l-67.693 96.019c-0.728 1.025-1.164 2.302-1.164 3.68 0 3.535 2.865 6.4 6.4 6.4 0.015 0 0.031 0 0.046 0h35.678v528h64c0-171.84 0-528 0-528h35.68c3.485-0.065 6.285-2.905 6.285-6.399 0-1.379-0.436-2.656-1.178-3.701zM800 624v64h-384v-64h384zM704 464v64h-288v-64h288zM608 304v64h-192v-64h192z" />
<glyph unicode="&#xe903;" glyph-name="icons_arrow-down-filled" d="M512 272l-192 352h384z" />
<glyph unicode="&#xe904;" glyph-name="icons_arrow-down-line" d="M722.56 600l-213.44-213.44-207.68 207.84-45.28-45.28 252.96-253.12 258.72 258.72-45.28 45.28z" />
<glyph unicode="&#xe905;" glyph-name="icons_arrow-left-filled" d="M336 448l352 184v-368z" />
<glyph unicode="&#xe906;" glyph-name="icons_arrow-left-line" d="M450.56 450.88l207.84 207.68-45.28 45.28-253.12-252.96 258.72-258.72 45.28 45.28-213.44 213.44z" />
<glyph unicode="&#xe907;" glyph-name="icons_arrow-right-filled" d="M688 448l-352-184v368z" />
<glyph unicode="&#xe908;" glyph-name="icons_arrow-right-line" d="M573.44 450.88l-207.84 207.68 45.28 45.28 253.12-252.96-258.72-258.72-45.28 45.28 213.44 213.44z" />
<glyph unicode="&#xe909;" glyph-name="icons_arrow-up-filled" d="M512 624l192-352h-384z" />
<glyph unicode="&#xe90a;" glyph-name="icons_arrow-up-line" d="M722.56 296l-213.44 213.44-207.68-207.84-45.28 45.28 252.96 253.12 258.72-258.72-45.28-45.28z" />
<glyph unicode="&#xe90b;" glyph-name="icons_back-to-top" d="M512 768c-176.731 0-320-143.269-320-320s143.269-320 320-320c176.731 0 320 143.269 320 320s-143.269 320-320 320zM602.72 488.48l-74.72 74.72v-259.2h-32v259.2l-74.72-74.72-22.56 22.56 113.28 112.96 113.12-113.12z" />
<glyph unicode="&#xe90c;" glyph-name="icons_beam" d="M949.6 343.040v101.76c0.009 0.298 0.015 0.649 0.015 1.001 0 7.438-2.406 14.315-6.481 19.894-4.132 5.134-10.524 8.453-17.692 8.453-0.62 0-1.234-0.025-1.842-0.074-0.377 0.037-0.911 0.055-1.449 0.055-7.202 0-13.648-3.237-17.962-8.335-4.236-5.4-6.775-12.247-6.775-19.688 0-0.459 0.010-0.917 0.029-1.371l-0.002-101.695h-42.24v101.76c0 0.054 0 0.118 0 0.182 0 7.825-2.714 15.016-7.251 20.684-4.178 5.156-10.588 8.466-17.771 8.466-0.541 0-1.078-0.019-1.61-0.056-0.431 0.042-1.018 0.064-1.609 0.064-7.207 0-13.656-3.241-17.971-8.345-4.139-5.454-6.612-12.311-6.612-19.746 0-0.439 0.009-0.876 0.026-1.311l-0.002-101.697h-41.76v166.88h42.4v-18.88c4.087 6.833 9.847 12.285 16.729 15.89 6.835 3.803 14.713 5.992 23.1 6.030 0.265 0.005 0.563 0.008 0.862 0.008 8.602 0 16.649-2.382 23.515-6.523 7.071-4.523 12.888-10.853 16.789-18.34 5.494 7.863 12.873 14.267 21.568 18.321 8.606 4.16 18.345 6.519 28.633 6.533 0.233 0.003 0.503 0.005 0.774 0.005 8.11 0 15.821-1.709 22.792-4.788 6.871-2.825 13.042-6.994 18.196-12.175 5.022-5.402 9.083-11.775 11.86-18.795 2.689-6.943 4.164-14.509 4.164-22.419 0-0.587-0.008-1.171-0.024-1.754l0.002-109.994h-42.4zM697.76 357.44c-4.534-5.374-10.283-9.581-16.832-12.218-6.373-2.759-13.455-4.34-20.897-4.422-0.325-0.004-0.673-0.006-1.021-0.006-7.831 0-15.431 0.994-22.678 2.863-6.405 1.462-12.58 4.406-17.891 8.43-5.045 4.151-9.126 9.515-11.776 15.643-2.85 6.645-4.447 14.066-4.447 21.861 0 0.566 0.008 1.129 0.025 1.691-0.1 1.108-0.156 2.494-0.156 3.894 0 14.748 6.197 28.049 16.129 37.441 10.728 8.367 24.368 13.402 39.184 13.402 1.252 0 2.496-0.036 3.731-0.107l36.949 0.008v11.68c0.009 0.21 0.014 0.456 0.014 0.704 0 3.152-0.836 6.109-2.299 8.661-1.408 2.284-3.345 4.222-5.641 5.632-2.378 1.395-5.080 2.355-7.961 2.75-1.454 0.121-3.017 0.183-4.593 0.183s-3.139-0.062-4.684-0.183c-0.176 0.027-0.624 0.036-1.073 0.036-6.149 0-11.936-1.548-16.993-4.277-5.142-3.232-9.464-7.707-12.514-13.006l-34.336 25.58c7.229 10.339 17.269 18.265 29.013 22.737 11.266 4.198 23.79 6.545 36.863 6.545 0.241 0 0.481-0.001 0.721-0.002 0.43 0.007 0.982 0.010 1.534 0.010 9.023 0 17.814-0.995 26.269-2.88 7.093-1.571 14.029-4.856 19.967-9.383 5.892-4.409 10.6-10.35 13.528-17.232 2.963-7.733 4.62-16.359 4.62-25.372 0-0.796-0.013-1.589-0.039-2.378l0.003-112.845h-42.72v14.56zM697.76 411.52h-32c-0.287 0.008-0.625 0.012-0.963 0.012-5.86 0-11.416-1.302-16.394-3.632-4.111-2.588-6.965-7.329-6.965-12.737 0-0.778 0.059-1.541 0.173-2.287-0.022-0.145-0.029-0.412-0.029-0.681 0-3.025 0.84-5.854 2.298-8.267 1.469-2.152 3.461-3.938 5.792-5.166 2.457-1.277 5.221-2.13 8.148-2.434 1.39-0.087 2.899-0.131 4.419-0.131s3.029 0.045 4.527 0.133c0.23-0.029 0.743-0.040 1.258-0.040 7.68 0 14.783 2.471 20.557 6.661 5.255 4.479 8.632 11.219 8.632 18.748 0 0.754-0.034 1.5-0.1 2.237l0.007 7.905zM499.36 386.4c5.086-6.246 12.775-10.204 21.389-10.204 0.919 0 1.828 0.045 2.724 0.133 7.051 0.164 13.598 2.666 18.837 6.764 5.913 4.134 11.148 8.658 15.886 13.66l30.604-26.033c-8.005-9.184-17.547-16.786-28.266-22.462-10.523-5.408-22.334-8.427-34.85-8.427-0.423 0-0.845 0.003-1.267 0.010-0.602-0.020-1.384-0.031-2.169-0.031-11.499 0-22.446 2.365-32.381 6.634-8.768 3.999-16.579 10.016-22.741 17.45-6.21 7.713-10.897 16.759-13.568 26.634-3.299 10.651-5.267 22.337-5.555 34.439 0.007 11.524 1.465 22.551 4.198 33.063 2.473 9.745 6.826 19.095 12.62 27.362 5.586 7.888 12.913 14.551 21.412 19.396 9.054 4.924 19.44 7.719 30.478 7.719 0.651 0 1.299-0.010 1.945-0.029 0.249 0.008 0.655 0.011 1.062 0.011 10.285 0 20.116-1.941 29.148-5.476 8.145-3.279 15.519-8.392 21.503-14.816 5.989-6.504 10.681-14.238 13.654-22.777 3.086-8.974 4.787-18.786 4.787-28.996 0-0.43-0.003-0.859-0.009-1.288l0.001-27.775h-97.76c0.426-9.371 3.476-17.952 8.425-25.121zM547.36 444.96c-0.809 4.737-1.975 8.931-3.515 12.94-0.942 3.324-2.583 6.625-4.709 9.552-2.046 2.668-4.724 4.885-7.806 6.409-3.48 1.588-7.396 2.479-11.52 2.479-0.383 0-0.765-0.008-1.145-0.023-0.188 0.010-0.474 0.015-0.76 0.015-4.070 0-7.918-0.95-11.335-2.64-3.218-1.709-6.043-4.074-8.288-6.918-2.316-2.865-4.118-6.167-5.263-9.762-1.147-3.625-1.993-7.642-2.435-11.779l55.816-0.275zM425.44 364.96c-4.334-7.369-10.343-13.327-17.528-17.477-7.989-4.29-17.205-6.739-26.993-6.739-0.886 0-1.767 0.020-2.642 0.060-7.337 0.056-14.329 2.005-20.415 5.388-6.246 3.172-11.611 7.77-15.693 13.363l-0.087-15.875h-41.6v232.32h41.28v-82.24c4.112 5.871 9.489 10.583 15.757 13.807 6.149 3.434 13.207 5.391 20.722 5.393 0.821 0.044 1.782 0.068 2.748 0.068 10.84 0 20.95-3.125 29.479-8.522 7.363-5.365 13.286-12.727 16.928-21.293 3.855-9.122 6.32-19.309 6.992-29.983q1.294-16.27 1.294-33.23c0.001-0.159 0.001-0.348 0.001-0.536 0-10.265-0.873-20.326-2.549-30.113-1.17-8.453-4.097-17.035-8.365-24.773zM395.36 435.84c0.115 2.103 0.181 4.564 0.181 7.040s-0.066 4.937-0.195 7.381c-0.391 4.106-1.647 8.179-3.589 11.832-1.777 3.284-4.505 6.064-7.816 7.935-3.905 1.989-8.397 3.123-13.154 3.123-0.473 0-0.944-0.011-1.412-0.033-0.342 0.025-0.819 0.037-1.299 0.037-4.787 0-9.281-1.259-13.167-3.464-3.236-2.034-5.946-4.898-7.809-8.294-1.918-3.597-3.173-7.67-3.57-11.992-0.123-2.228-0.187-4.689-0.187-7.165s0.065-4.937 0.192-7.382l-0.014-18.858c0.011-4.755 0.418-9.406 1.19-13.934 0.589-3.817 1.934-7.695 3.862-11.209 1.838-3.225 4.548-5.987 7.808-7.922 3.736-2.082 8.075-3.275 12.694-3.275 0.354 0 0.707 0.007 1.057 0.021 0.281-0.015 0.67-0.023 1.062-0.023 4.673 0 9.082 1.132 12.967 3.136 3.252 1.849 5.981 4.629 7.789 7.979 1.885 3.538 3.184 7.538 3.715 11.777 0.017 0.239 0.018 0.322 0.018 0.405 0 4.598-0.291 9.128-0.855 13.573l0.055 19.472zM139.84 528l68.16-68.32-68.48-68-27.52 26.88 41.12 41.28-40 40.8zM32 419.2h37.92v-37.92h155.36v156.8h-155.36v-37.44h-37.92v75.36h231.2v-233.12h-231.2v76.32zM103.040 440.48h-71.040v38.24h71.040v-38.24z" />
<glyph unicode="&#xe90d;" glyph-name="icons_bold" d="M618.080 455.68c37.972 15.858 64.172 52.691 64.172 95.643 0 2.096-0.062 4.177-0.185 6.241 0.014 85.636-61.746 130.276-161.746 130.276h-184.32v-479.84h199.2c100 0 160.96 48 160.96 136 0.007 0.474 0.011 1.034 0.011 1.594 0 50.605-32.227 93.683-77.277 109.831zM432 490.88v112h81.28c48 0 72.64-17.12 72.64-55.52s-24.96-57.12-72.64-57.12h-81.28zM432 410.88h94.56c46.88 0 72-21.6 72-59.2s-24.96-60.16-72-60.16h-94.56v120.16z" />
<glyph unicode="&#xe90e;" glyph-name="icons_bullet-list" d="M368 640c0-26.51-21.49-48-48-48s-48 21.49-48 48c0 26.51 21.49 48 48 48s48-21.49 48-48zM320 304c-26.51 0-48-21.49-48-48s21.49-48 48-48c26.51 0 48 21.49 48 48s-21.49 48-48 48zM320 496c-26.51 0-48-21.49-48-48s21.49-48 48-48c26.51 0 48 21.49 48 48s-21.49 48-48 48zM752 656h-320v-32h320v32zM752 464h-320v-32h320v32zM752 272h-320v-32h320v32z" />
<glyph unicode="&#xe90f;" glyph-name="icons_calendar" d="M736 736h-64v64h64v-64zM352 800h-64v-64h64v64zM864 736v-624h-704v624h128v-64h64v64h320v-64h64v64h128zM816 592h-608v-432h608v432z" />
<glyph unicode="&#xe910;" glyph-name="icons_circle-close" d="M285.76 221.76c-57.929 57.912-93.76 137.926-93.76 226.308 0 176.731 143.269 320 320 320s320-143.269 320-320c0-88.382-35.831-168.396-93.759-226.307-57.906-57.889-137.892-93.693-226.241-93.693s-168.335 35.804-226.241 93.693zM672 328.32l-117.92 117.92 117.92 118.72-39.2 39.2-118.72-118.72-117.44 117.44-39.84-39.84 117.44-117.44-118.72-118.72 39.52-38.88 118.72 118.72 118.080-118.72z" />
<glyph unicode="&#xe911;" glyph-name="icons_clock" d="M512 768c-176.731 0-320-143.269-320-320s143.269-320 320-320c176.731 0 320 143.269 320 320s-143.269 320-320 320zM512 185.44c-145.008 0-262.56 117.552-262.56 262.56s117.552 262.56 262.56 262.56c145.008 0 262.56-117.552 262.56-262.56s-117.552-262.56-262.56-262.56zM676.16 456.16h-156v106.72c0 13.608-11.032 24.64-24.64 24.64s-24.64-11.032-24.64-24.64v-155.84h205.12c0.618-0.055 1.336-0.086 2.062-0.086 13.608 0 24.64 11.032 24.64 24.64s-11.032 24.64-24.64 24.64c-0.67 0-1.333-0.027-1.989-0.079z" />
<glyph unicode="&#xe912;" glyph-name="icons_close-job" d="M336 480h352v-48h-352v48zM336 624h352v48h-352v-48zM336 336h349.6l2.4 2.4v45.6h-352v-48zM336 528h352v48h-352v-48zM768 249.44v-105.44h-71.36c-9.44-16-18.4-32-26.72-48h146.080v208c-16-16-32-34.24-48-54.56zM518.080 119.040c-8.033 8.803-16.229 16.948-24.804 24.68l-237.276 0.28v608h512v-340.16c17.44 14.56 34.080 27.52 48 38.4v349.76h-608v-704h329.28c-6.24 8-12.8 16-19.2 23.040zM464 286.88c22.781-9.864 42.423-21.601 60.297-35.502 21.22-17.516 40.74-36.58 58.546-57.167 38.851 45.758 77.927 87.52 119.392 126.784 44.023 40.217 90.961 78.473 139.986 114.027l40.499-31.822c-58.943-44.221-110.041-94.151-154.038-149.941-45.573-62.325-85.488-131.206-117.849-204.181-33.959 41.046-65.561 82.821-99.927 122.118-23.129 25.363-50.457 48.521-80.494 67.833z" />
<glyph unicode="&#xe913;" glyph-name="icons_close" d="M752 645.44l-42.56 42.56-197.44-197.44-197.44 197.44-42.56-42.56 197.44-197.44-197.44-197.44 42.56-42.56 197.44 197.44 197.44-197.44 42.56 42.56-197.44 197.44 197.44 197.44z" />
<glyph unicode="&#xe914;" glyph-name="icons_cv" d="M463.2 528h-112v48h126.080c-2.826-3.365-5.239-7.214-7.079-11.373-4.48-10.596-7.014-22.562-7.014-35.119 0-0.53 0.005-1.059 0.014-1.587zM656 672h-304v-48h304v48zM455.2 480h-103.2v-48h104l-3.2 39.52v3.84c0.11 1.882 1.018 3.532 2.387 4.63zM272 752h464v-456.64l48-21.6v526.24h-560v-656h117.44c6.24 16.96 11.040 29.6 13.12 35.2 0.872 2.191 1.785 4.033 2.825 5.792 1.321 2.583 3.084 4.958 5.17 7.004l-90.555 0.004v560zM818.24 198.72c-4.128 7.785-8.641 14.494-13.762 20.681l-77.758 46.199c-40.96 16-56.8 26.4-60.16 35.84-1.222 9.098-1.92 19.616-1.92 30.296 0 18.524 2.099 36.559 6.071 53.878 2.473 6.91 5.189 17.671 7.258 28.661s4.11-3.074 11.95 5.726c8.219 9.774 13.919 21.925 15.95 35.281 0.050 23.919-11.63 16.399-11.63 16.399s12 51.84-3.84 80-37.76 51.52-78.080 51.52c-0.112 0-0.245 0.001-0.378 0.001-35.058 0-66.126-17.084-85.333-43.381-11.568-19.819-8.048-83.659-8.048-83.659s-10.72 3.040-11.68-4c-0.151-2.089-0.237-4.526-0.237-6.983 0-10.225 1.489-20.102 4.263-29.427 10.534-26.311 23.334-15.271 23.334-15.271s9.12-36 11.68-43.68c2.797-16.7 4.396-35.941 4.396-55.555 0-6.967-0.202-13.886-0.599-20.753-5.716-18.091-103.636-52.331-117.716-66.571s-48-79.040-35.2-99.2c26.080-43.36 140.64-48 187.52-48s198.24-2.4 233.76 43.36c17.6 22.72 0.16 68.64 0.16 68.64z" />
<glyph unicode="&#xe915;" glyph-name="icons_delete" d="M688 703.68h-133.92v46.24h-84v-46.24h-134.080v-48h352v48zM691.36 624v0h-403.36v-48h48l29.92-432h283.68l38.4 432h48v48h-44.64zM606.24 192h-194.88l-27.36 384h254.4z" />
<glyph unicode="&#xe916;" glyph-name="icons_dollar" d="M488 137.6v47.2c-21.083 4.259-39.206 9.451-56.726 15.891-41.506 15.411-79.63 37.673-113.031 65.423l53.917 74.206c22.452-21.224 49.011-38.382 78.323-50.127 10.373-4.164 21.047-7.62 32.017-10.327l1.66 122.854c-18.4 6.4-37.44 12.16-55.84 19.52-65.76 26.080-97.6 67.36-97.6 125.6 0.476 29.99 10.047 57.654 26.066 80.46 22.094 31.217 55.034 54.152 93.324 63.32 12.016 3.111 24.647 4.955 37.645 5.335l0.245 61.446h70.4q0-32 0-62.72c17.919-2.137 34.16-5.901 49.68-11.22 22.168-7.14 42.887-18.033 61.251-31.883 11.038-8.36 21.206-17.868 30.302-28.333l-50.353-67.764c-15.002 18.987-34.244 33.968-56.341 43.634-9.862 4.326-20.275 7.545-31.122 9.517q-0.857-30.591-0.857-61.951 0-25.92 0-51.52c23.903-5.473 44.933-13.23 64.596-23.282 28.044-14.478 53.644-27.438 71.404-56.398 11.356-19.371 18.063-42.658 18.063-67.512 0-8.314-0.751-16.454-2.188-24.353-4.626-28.652-17.206-54.588-35.394-75.521-15.35-18.050-34.178-32.941-55.464-43.668-18.672-10.104-39.156-17.546-60.81-21.693l-1.328-46.132h-71.84zM487.040 589.92c0 4.48 0 11.36 0 19.68-5.132-1.445-9.593-3.299-13.769-5.607-12.935-6.226-22.949-17.596-27.406-31.458-0.826-3.387-1.24-6.844-1.24-10.399 0-5.533 1.003-10.832 2.837-15.725 5.161-13.006 14.557-23.746 26.48-30.574 3.915-2.532 8.073-4.731 12.437-6.534 0.502 3.496 0.502 13.256 0.502 17.096 0 25.92 0 42.56 0.16 63.52zM561.28 300.8v-19.52c9.069 1.237 17.165 4.653 23.98 9.699 12.823 11.003 20.985 27.387 20.985 45.678 0 1.571-0.060 3.127-0.178 4.667-0.838 10.526-4.301 20.299-9.734 28.677-9.067 9.369-20.665 16.623-33.698 20.574l-0.555-11.375c-0.16-25.6 0-51.68-0.8-78.4z" />
<glyph unicode="&#xe917;" glyph-name="icons_download" d="M624 640v-48h128v-480h-480v480h128v48h-176v-576h576v576h-176zM390.88 442.56l97.12-97.28h0.16l24.64-24.8 122.080 122.080-33.92 33.92-64.96-64.96v420.48h-48v-418.72l-63.2 63.2-33.92-33.92z" />
<glyph unicode="&#xe918;" glyph-name="icons_duplicate" d="M688 512h-224v48h224v-48zM688 464h-224v-48h224v48zM608 272h-144v-48h144v48zM688 368h-224v-48h224v48zM816 688v-592h-480v128h-128v592h480v-128h128zM336 688h304v80h-384v-496h80v416zM768 640l-384-1.28v-494.72h384v496z" />
<glyph unicode="&#xe919;" glyph-name="icons_edit" d="M222.24 158.24l26.72 160 419.52 419.52 133.28-133.28-419.68-419.52zM293.76 295.040l-13.12-78.4 78.4 13.12 374.88 374.72-65.28 65.28z" />
<glyph unicode="&#xe91a;" glyph-name="icons_email" d="M832 720h-672v-528h720v528h-48zM787.040 240h-531.040l192 165.76-35.52 32.96-204.48-176.16v384.96l310.88-268.96 313.12 270.88v-384.8l-203.52 176-35.52-32.96zM518.88 441.92l-265.76 230.080h530.88z" />
<glyph unicode="&#xe91b;" glyph-name="icons_facebook-square" d="M782.4 752h-540.8c-18.557 0-33.6-15.043-33.6-33.6v-540.8c0-18.557 15.043-33.6 33.6-33.6h291.2v235.52h-80v91.68h80v67.68c0 78.56 48 121.28 118.080 121.28 25.044-0.109 49.608-1.618 73.767-4.451l-3.047-81.789h-48c-38.080 0-45.44-18.080-45.44-44.64v-58.56h90.24l-11.84-91.68h-79.040v-235.040h154.88c18.557 0 33.6 15.043 33.6 33.6v540.8c0 18.557-15.043 33.6-33.6 33.6z" />
<glyph unicode="&#xe91c;" glyph-name="icons_facebook" d="M559.040 144v277.28h93.12l13.92 108.16h-107.040v68.96c0 32 8.64 52.64 53.6 52.64h57.28v96c-24.921 3.020-53.928 4.818-83.327 4.959-82.593 0.001-138.593-50.399-138.593-142.879v-80h-93.92v-108.16h93.92v-276.96h112z" />
<glyph unicode="&#xe91d;" glyph-name="icons_favourite" d="M320 161.28v590.72h384v-590.72c-0.345-10.333-8.805-18.578-19.19-18.578-3.539 0-6.854 0.957-9.7 2.627l-153.51 88.751c-2.773 1.646-6.113 2.619-9.68 2.619s-6.907-0.973-9.769-2.668l-153.351-90.031c-2.757-1.621-6.072-2.579-9.611-2.579-10.604 0-19.2 8.596-19.2 19.2 0 0.232 0.004 0.462 0.012 0.692zM656 209.28l-0.96 496h-288l0.96-496c2.24 2.24 102.72 57.76 133.92 74.88 2.63 1.478 5.773 2.349 9.12 2.349s6.49-0.871 9.215-2.398c31.425-17.391 133.665-73.231 135.745-75.151z" />
<glyph unicode="&#xe91e;" glyph-name="icons_Filter-Two" d="M446.4 640c-7.672 36.816-39.852 64.080-78.4 64.080s-70.728-27.264-78.309-63.56l-65.691-0.52v-32h65.6c7.672-36.816 39.852-64.080 78.4-64.080s70.728 27.264 78.309 63.56l353.691 0.52v32h-353.6zM413.12 608c-6.953-18.489-24.488-31.405-45.040-31.405s-38.087 12.916-44.931 31.074c-1.973 5.080-3.053 10.579-3.053 16.331s1.080 11.251 3.048 16.306c6.848 18.182 24.383 31.099 44.935 31.099s38.087-12.916 44.931-31.074c1.973-5.080 3.053-10.579 3.053-16.331s-1.080-11.251-3.048-16.306zM720 528c-0.005 0-0.011 0-0.016 0-38.519 0-70.68-27.223-78.292-63.479l-417.692-0.521v-32h417.6c7.704-36.777 39.865-64 78.384-64 44.183 0 80 35.817 80 80 0 44.177-35.808 79.991-79.983 80zM765.12 432c-6.953-18.489-24.488-31.405-45.040-31.405s-38.087 12.916-44.931 31.074c-1.973 5.080-3.053 10.579-3.053 16.331s1.080 11.251 3.048 16.306c6.848 18.182 24.383 31.099 44.935 31.099s38.087-12.916 44.931-31.074c1.973-5.080 3.053-10.579 3.053-16.331s-1.080-11.251-3.048-16.306zM528 352c-0.005 0-0.011 0-0.016 0-38.519 0-70.68-27.223-78.292-63.479l-225.692-0.521v-32h225.6c7.672-36.816 39.852-64.080 78.4-64.080s70.728 27.264 78.309 63.56l193.691 0.52v32h-193.6c-7.704 36.777-39.865 64-78.384 64-0.006 0-0.011 0-0.017 0zM573.12 256c-6.953-18.489-24.488-31.405-45.040-31.405s-38.087 12.916-44.931 31.074c-1.973 5.080-3.053 10.579-3.053 16.331s1.080 11.251 3.048 16.306c6.848 18.182 24.383 31.099 44.935 31.099s38.087-12.916 44.931-31.074c1.973-5.080 3.053-10.579 3.053-16.331s-1.080-11.251-3.048-16.306z" />
<glyph unicode="&#xe91f;" glyph-name="icons_Filter" d="M240 752h544l-224-288v-320l-96 48v272z" />
<glyph unicode="&#xe920;" glyph-name="icons_folder" d="M818.56 588l13.92 80h-344.48v48h-208v-48h-88l13.92-80h-83.2l81.6-408h615.36l81.6 408h-82.72zM274.56 620h53.44v52.96h112v-52.96h336l-5.6-32h-515.36l-5.6 32h25.44zM779.84 228h-536.16l-62.4 312h661.44z" />
<glyph unicode="&#xe921;" glyph-name="icons_hide" d="M112 448c0 82.56 219.68 284.64 402.080 284.64 80 0 169.6-42.88 244.16-97.12l-85.12-49.12c-39.615 44.27-96.925 72-160.711 72-0.144 0-0.288 0-0.432 0-0.793 0.011-1.755 0.018-2.719 0.018-115.491 0-209.315-92.771-211.016-207.857 0.004-26.225 4.936-51.136 13.913-74.015l-112.475-63.585c-53.92 51.84-87.68 104.8-87.68 135.040zM406.24 497.44c-5.136-14.011-8.871-30.292-10.497-47.19 0.010-8.842 0.938-16.617 2.636-24.101l72.181 42.491zM836.16 569.6c46.080-46.080 75.84-91.84 75.84-121.6 0-71.52-209.28-284.64-397.92-284.64-83.2 0-166.56 36.32-235.84 84.16l-145.92-84.32-24 41.6 831.36 480 24-41.6zM725.76 450.080c-0.052 18.456-2.559 36.304-7.213 53.264l-90.227-53.744c-0.718-62.898-51.873-113.609-114.873-113.609-0.509 0-1.017 0.003-1.524 0.010 0.029-0.001-0.027-0.001-0.084-0.001-20.256 0-39.322 5.094-55.988 14.070l-89.771-52.47c38.143-34.637 89.031-55.843 144.871-55.843 0.369 0 0.737 0.001 1.106 0.003 0.757-0.012 1.718-0.018 2.68-0.018 115.604 0 209.498 92.952 211.021 208.194zM512 563.52c-16.718-1.501-32.104-4.671-46.8-9.381l30.8-69.819 90.72 52.32c-20.125 16.728-46.235 26.88-74.716 26.88-0.002 0-0.003 0-0.005 0z" />
<glyph unicode="&#xe922;" glyph-name="icons_hold" d="M800 327.52v328.48c0 22.091-17.909 40-40 40s-40-17.909-40-40v-140.8c-2.003-6.711-8.12-11.52-15.36-11.52s-13.357 4.809-15.331 11.407l-0.029 0.113v236.8c0 22.091-17.909 40-40 40s-40-17.909-40-40v-234.72c0-8.837-7.163-16-16-16s-16 7.163-16 16v0 266.72c0 22.091-17.909 40-40 40s-40-17.909-40-40v-279.52s0 0 0-0.96c0-8.837-7.163-16-16-16s-16 7.163-16 16 0 0 0 0.96v0 215.52c0 22.091-17.909 40-40 40s-40-17.909-40-40v-333.76c0.014-0.239 0.022-0.519 0.022-0.8s-0.008-0.561-0.023-0.839c-0.153-8.679-7.256-15.686-15.996-15.686-6.721 0-12.475 4.145-14.844 10.018l-0.038 0.107-54.88 110.4c-6.644 13.422-20.245 22.488-35.963 22.488-22.091 0-40-17.909-40-40 0-6.568 1.583-12.766 4.388-18.234l112.855-232.095c4.344-10.529 8.634-19.207 13.416-27.569l1.784-3.791c42.742-70.105 118.791-116.2 205.605-116.2 132 0 239.11 106.564 239.994 238.355-0.265 5.636-0.837 10.811-1.707 15.883zM758.080 313.6c0-106.039-85.961-192-192-192-96.8 0-141.6 48-188.96 132-6.288 10.638-11.442 22.941-14.82 35.959-7.58 52.041 82.5-2.039 77.86 81.001-3.84 67.52 59.040 64.96 128.96 69.92 53.28 3.84 126.24 24.16 160.96-11.040s28.48-63.36 28.48-116z" />
<glyph unicode="&#xe923;" glyph-name="icons_info-circle" d="M512 128c-176.731 0-320 143.269-320 320s143.269 320 320 320c176.731 0 320-143.269 320-320s-143.269-320-320-320zM532 462.24c5.453 7.784 9.296 17.092 10.835 27.158-0.086 7.684-6.052 13.568-13.392 13.568-0.906 0-1.792-0.090-2.648-0.261-21.514 0.014-40.074-18.066-68.074-57.746-4.668-6.564-9.288-14.101-13.398-21.947-2.915-5.678-4.944-11.006-6.335-16.587-1.432-7.422-2.191-15.376-2.191-23.508 0-0.351 0.001-0.701 0.004-1.051-0.005-0.333-0.008-0.789-0.008-1.245 0-17.009 4.021-33.078 11.165-47.309 5.291-11.818 17.551-20.318 31.795-20.318 1.045 0 2.079 0.046 3.101 0.135 14.391 0.384 27.556 5.892 37.697 14.77 18.725 15.143 35.1 32.177 49.161 51.038l0.53 21.063c-9.126-8.563-19.109-16.462-29.725-23.481-8.851-5.985-18.633-9.439-29.186-9.954-0.33-0.011-0.567-0.015-0.805-0.015-6.616 0-12.603 2.695-16.923 7.048-3.732 3.807-6.034 9.025-6.034 14.781 0 0.768 0.041 1.527 0.121 2.273-0.009 0.003-0.010 0.115-0.010 0.228 0 7.351 2.274 14.172 6.158 19.796zM580.8 577.6c-3.461 3.18-8.097 5.128-13.188 5.128-0.201 0-0.402-0.003-0.602-0.009-10.121-1.026-18.771-6.659-23.893-14.748-6.532-7.302-10.755-16.596-11.587-26.849-0.014-0.292-0.017-0.445-0.017-0.599 0-5.149 2.432-9.729 6.209-12.656 3.485-3.209 8.079-5.196 13.134-5.307 10.133 0.823 18.829 6.234 24.109 14.124 6.369 7.057 10.481 16.082 11.263 26.044 0.040 0.555 0.057 1.024 0.057 1.498 0 5.213-2.095 9.937-5.49 13.376z" />
<glyph unicode="&#xe924;" glyph-name="icons_info" d="M492.16 685.6c5.326 32.595 32.843 57.307 66.304 58.238 0.446 0.011 0.859 0.016 1.272 0.016 27.128 0 49.12-21.992 49.12-49.12 0-3.23-0.312-6.388-0.907-9.444-5.276-32.285-32.792-56.997-66.254-57.928-0.446-0.011-0.859-0.016-1.272-0.016-27.128 0-49.12 21.992-49.12 49.12 0 3.23 0.312 6.388 0.907 9.444zM610.4 199.36c-21.12-35.040-64-47.2-97.76-47.2-55.36 0-83.040 27.68-75.68 78.4l39.52 286.24c0.084 0.534 0.132 1.149 0.132 1.776 0 6.627-5.373 12-12 12-0.215 0-0.429-0.006-0.642-0.017l-44.93 0.001-5.44 18.56c88.16 0 152.96 0 160 0 2.796-0.035 5.3-1.26 7.032-3.191 0.825-1.243 1.311-2.757 1.311-4.386 0-0.603-0.067-1.191-0.193-1.757l-45.11-322.987c-1.055-3.271-1.663-7.033-1.663-10.938 0-7.884 2.479-15.189 6.701-21.178 3.982-3.136 9.194-5.103 14.865-5.103 0.767 0 1.525 0.036 2.273 0.106 19.7 0.573 37.675 7.914 51.709 19.775z" />
<glyph unicode="&#xe925;" glyph-name="icons_instagram" d="M745.92 494.72h-52.96c3.861-14.193 6.080-30.488 6.080-47.302 0-103.299-83.741-187.040-187.040-187.040s-187.040 83.741-187.040 187.040c0 16.814 2.219 33.109 6.379 48.609l-53.259-1.308v-257.12c0-12.901 10.459-23.36 23.36-23.36h420.96c12.901 0 23.36 10.459 23.36 23.36v257.12zM745.92 658.4c0 12.901-10.459 23.36-23.36 23.36h-70.24c-12.901 0-23.36-10.459-23.36-23.36v-70.24c0-12.901 10.459-23.36 23.36-23.36h70.080c12.901 0 23.36 10.459 23.36 23.36v70.24zM512 564.96c-64.595 0-116.96-52.365-116.96-116.96s52.365-116.96 116.96-116.96c64.595 0 116.96 52.365 116.96 116.96s-52.365 116.96-116.96 116.96zM745.92 144h-467.84c-38.724 0.091-70.080 31.504-70.080 70.24 0 0 0 0 0 0v467.68c0 38.704 31.376 70.080 70.080 70.080h467.84c38.704 0 70.080-31.376 70.080-70.080v-467.68c0 0 0 0 0 0 0-38.736-31.356-70.149-70.071-70.24z" />
<glyph unicode="&#xe926;" glyph-name="icons_italic" d="M524.32 208l8.32 19.84-0.8 5.44c-45.28 0-52 17.12-42.080 48l102.24 332.64c9.92 32 27.040 48 72.32 48l4.16 5.44 3.52 20.64h-172.96l-7.52-25.44c42.72 0 50.72-17.12 40.8-48l-101.6-332.48c-9.92-32-28.32-48-70.4-48l-8.32-26.080h172.32z" />
<glyph unicode="&#xe927;" glyph-name="icons_job-offer" d="M573.92 148.8c-0.258-0.001-0.564-0.001-0.87-0.001-23.049 0-45.5 2.565-67.081 7.426-5.1 1.423-13.385 2.629-21.892 2.968-20.295 0.372-39.384 4.036-57.142 10.476-6.856 2.947-16.226 4.983-26.044 5.21-5.051 0.002-18.011-2.558-33.051-5.118-29.76-4.96-70.56-11.84-102.88-14.4v0c-0.575-0.049-1.244-0.077-1.92-0.077-13.255 0-24 10.745-24 24 0 0.027 0 0.054 0 0.081v255.996c-0.003 0.165-0.005 0.359-0.005 0.553 0 17.673 14.327 32 32 32 2.095 0 4.143-0.201 6.126-0.586l71.639-11.807c1.727 2.033 3.411 4.277 4.958 6.619 6.871 10.763 14.056 23.492 20.608 36.594 8.514 16.627 15.714 30.547 23.234 42.867 7.477 11.385 15.871 21.253 25.332 29.981 3.353 2.798 6.277 5.57 9.014 8.519 10.143 17.781 16.85 38.675 18.737 60.943l1.318 9.037c1.12 7.68 2.72 14.88 4.16 21.6 1.886 7.035 3.148 15.201 3.512 23.6-0.681 3.429-1.075 7.093-1.075 10.849 0 11.796 3.892 22.683 10.461 31.447 7.019 6.216 16.46 10.099 26.807 10.099 5.835 0 11.382-1.235 16.394-3.457 55.902-15.898 74.142-81.338 55.582-201.658-1.2-6.165-2.748-11.529-4.71-16.689l0.23-0.111c2.515-0.54 5.434-0.886 8.421-0.959l39.899-0.001c21.28 0 36.96 1.44 50.72 2.88 32.96 3.36 56.8 5.76 93.6-22.72 32.96-25.6 18.72-58.24 12.64-72-0.8-1.92-1.6-3.68-2.24-5.28-1.966-2.48-3.154-5.654-3.154-9.106 0-2.523 0.635-4.897 1.753-6.973 7.154-9.802 11.468-22.18 11.468-35.565 0-14.768-5.251-28.309-13.988-38.858-3.642-3.17-5.98-7.943-5.98-13.261 0-2.211 0.404-4.327 1.142-6.279 11.959-36.038-15.081-59.558-29.481-72.358l-3.36-3.040c0.515-3.652 0.808-7.871 0.808-12.159 0-16.584-4.396-32.141-12.085-45.57-12.846-15.844-32.175-26.657-54.061-28.335-25.712-4.411-55.199-7.076-85.254-7.374zM403.2 223.040c14.156-0.556 27.498-3.325 39.924-7.97 11.385-4.382 25.568-7.279 40.369-7.706 12.2-0.312 23.691-1.869 34.742-4.553 15.556-3.638 34.699-5.854 54.359-5.854 0.41 0 0.82 0.001 1.23 0.003 27.409 0.385 54.001 2.872 79.929 7.309l-1.112-0.429c7.693 0.248 14.659 3.175 20.038 7.872 2.232 5.351 3.55 11.61 3.55 18.176 0 2.552-0.199 5.058-0.583 7.502-0.459 2.154-0.742 4.942-0.742 7.796 0 15.216 8.046 28.553 20.115 35.989 15.223 13.225 17.143 17.065 16.183 21.065-2.326 6.361-3.671 13.705-3.671 21.363 0 15.299 5.368 29.344 14.323 40.354 3.223 2.828 5.301 7.102 5.301 11.862 0 4.372-1.754 8.335-4.596 11.223-5.271 8.818-8.388 19.454-8.388 30.818 0 9.438 2.151 18.374 5.988 26.344 0.962 2.676 2.402 5.556 3.842 8.596 5.12 10.56 4.96 10.56 1.12 13.6-22.72 17.6-32.8 16-60 13.28-15.954-2.019-34.656-3.292-53.61-3.517l-40.95-0.003c-0.646-0.021-1.406-0.033-2.168-0.033-18.564 0-35.494 6.994-48.299 18.492-9.533 11.141-6.013 27.941-2.653 43.941 0 3.84 1.6 7.52 2.080 11.040 12.16 77.76 7.68 128-12.32 144-0.732-12.096-2.442-23.372-5.070-34.29-1.010-4.91-2.29-11.63-3.41-18.67l-1.28-8c-3.097-28.622-11.799-54.649-24.995-77.781-4.126-6.135-9.41-12.284-15.399-17.663-6.925-6.248-12.936-13.123-18.072-20.642-6.974-11.433-13.854-24.713-20.574-37.513-20.96-40.64-37.44-72.64-66.4-72.64h-3.040l-42.56 9.6c-0.722 0.115-1.554 0.181-2.401 0.181-8.837 0-16-7.163-16-16 0-0.064 0-0.127 0.001-0.191v-172.47c-0.003-0.124-0.005-0.27-0.005-0.417 0-10.604 8.596-19.2 19.2-19.2 0.678 0 1.347 0.035 2.007 0.104 19.597 2.873 39.277 6.233 55.277 9.113s26.56 4.64 32 5.12z" />
<glyph unicode="&#xe928;" glyph-name="icons_Key" d="M512 320l64 64c23.63-10.118 51.128-16 80-16 114.875 0 208 93.125 208 208s-93.125 208-208 208c-114.875 0-208-93.125-208-208 0-28.872 5.882-56.37 16.514-81.36l-288.514-270.64v-112h128l16 16v96h96v96zM746.88 565.44c-13.033-13.048-31.045-21.12-50.943-21.12-39.765 0-72 32.235-72 72s32.235 72 72 72c19.898 0 37.911-8.072 50.943-21.119 13.011-13.027 21.057-31.014 21.057-50.881s-8.046-37.854-21.057-50.881z" />
<glyph unicode="&#xe929;" glyph-name="icons_linkedin" d="M771.040 752h-518.24c-0.143 0.002-0.313 0.003-0.483 0.003-24.309 0-44.048-19.572-44.317-43.817v-520.346c0.27-24.271 20.008-43.843 44.317-43.843 0.17 0 0.339 0.001 0.508 0.003h518.214c0.144-0.002 0.314-0.003 0.485-0.003 24.342 0 44.116 19.553 44.475 43.809v520.354c-0.359 24.29-20.134 43.843-44.475 43.843-0.17 0-0.341-0.001-0.51-0.003zM388.32 233.92h-90.24v290.080h90.24v-290.080zM343.2 563.68c-28.896 0-52.32 23.424-52.32 52.32s23.424 52.32 52.32 52.32c28.896 0 52.32-23.424 52.32-52.32s-23.424-52.32-52.32-52.32zM726.080 233.92h-90.080v141.12c0 33.6 0 76.96-46.88 76.96s-54.080-36-54.080-74.56v-144h-90.080v290.56h86.4v-39.68h1.28c16.736 28.279 47.083 46.944 81.789 46.944 1.228 0 2.45-0.023 3.667-0.070 91.185 0.005 107.985-59.995 107.985-138.235v-159.2z" />
<glyph unicode="&#xe92a;" glyph-name="icons_location" d="M512 749.76c-0.563 0.005-1.228 0.008-1.894 0.008-117.156 0-212.861-91.843-219.043-207.458l-0.983-3.43v-35.68c2.526-17.454 6.549-33.098 12.045-48.029l3.795-7.171c5.398-13.539 11.305-25.069 18.138-35.959 7.302-13.801 15.462-28.361 24.582-42.441 42.080-66.4 85.92-131.52 128.96-197.28 2.080-3.2 4-6.4 6.4-9.44 5.989-9.973 16.747-16.543 29.040-16.543s23.051 6.57 28.955 16.391c26.005 38.553 51.125 77.273 76.405 116.153s50.4 78.88 76.32 117.92c20.925 30.709 34.669 67.863 38.024 107.97 0.871 8.138 1.336 16.611 1.336 25.192 0 0.041 0 0.083 0 0.124 0.005 0.528 0.007 1.161 0.007 1.793 0 120.354-97.566 217.92-217.92 217.92-1.465 0-2.927-0.014-4.386-0.043zM512 432c-61.856 0-112 50.144-112 112s50.144 112 112 112c61.856 0 112-50.144 112-112s-50.144-112-112-112z" />
<glyph unicode="&#xe92b;" glyph-name="icons_lock" d="M660 154.4h-328.16s-27.84 5.6-27.84 28.48v327.2h41.92v103.040c0 100.16 71.040 181.28 150.080 181.28s150.080-81.12 150.080-181.28v-103.040h41.92v-327.2s-7.84-28.48-28-28.48zM485.44 328v-45.44h20.96v45.44c8.409 5.168 13.932 14.317 13.932 24.756 0 0.297-0.004 0.593-0.013 0.887 0.255 1.291 0.401 2.825 0.401 4.393 0 13.697-11.103 24.8-24.8 24.8s-24.8-11.103-24.8-24.8c0-1.568 0.146-3.102 0.424-4.59-0.032-0.098-0.036-0.394-0.036-0.691 0-10.439 5.523-19.588 13.807-24.684zM590.24 618.88c0 61.6-44.64 112-94.24 112s-94.24-49.92-94.24-112v-108.8h188.48v108.8z" />
<glyph unicode="&#xe92c;" glyph-name="icons_menu-website" d="M864 720v-48h-704v48h704zM160 432h704v48h-704v-48zM160 192h704v48h-704v-48z" />
<glyph unicode="&#xe92d;" glyph-name="icons_menu" d="M816 608v-48h-608v48h608zM208 416h608v48h-608v-48zM208 272h608v48h-608v-48z" />
<glyph unicode="&#xe92e;" glyph-name="icons_message" d="M229.6 361.76h339.52l74.56-112.96 22.4 112.96h128v352h-564.48v-352zM662.72 151.2l-113.76 172.48h-356.96v428.32h640v-428.32h-135.2z" />
<glyph unicode="&#xe92f;" glyph-name="icons_mill" d="M744 720h104v-528h-104v528zM632 720h104v-528h-104v528zM520 608h104v-416h-104v416zM408 608h104v-416h-104v416zM296 608h104v-416h-104v416zM184 608h104v-416h-104v416z" />
<glyph unicode="&#xe930;" glyph-name="icons_more" d="M576 704c0-35.346-28.654-64-64-64s-64 28.654-64 64c0 35.346 28.654 64 64 64s64-28.654 64-64zM576 192c0-35.346-28.654-64-64-64s-64 28.654-64 64c0 35.346 28.654 64 64 64s64-28.654 64-64zM576 448c0-35.346-28.654-64-64-64s-64 28.654-64 64c0 35.346 28.654 64 64 64s64-28.654 64-64z" />
<glyph unicode="&#xe931;" glyph-name="icons_multiple-profiles" d="M341.28 377.6c-17.446-22.055-30.068-48.729-35.808-77.873-21.312-2.447-40.672-2.287-50.912-2.447-27.36 0-93.92 2.56-109.12 27.84-7.040 11.84 13.6 51.2 20.48 58.080s64.8 28.48 68.16 39.52c0.206 3.467 0.324 7.521 0.324 11.603 0 11.494-0.932 22.771-2.726 33.758-1.278 3.279-6.718 24.399-6.718 24.399s-7.36-6.56-13.6 9.28c-1.511 5.040-2.381 10.831-2.381 16.826 0 1.455 0.051 2.897 0.152 4.326-0.011 3.808 6.869 2.208 6.869 2.208-0.284 3.345-0.446 7.238-0.446 11.169 0 13.103 1.798 25.787 5.161 37.817 11.052 14.595 29.19 24.614 49.668 24.614 0.062 0 0.124 0 0.186 0 20.21-0.397 37.493-12.566 45.302-29.92 3.078-8.325 4.784-17.569 4.784-27.212 0-6.929-0.881-13.652-2.537-20.064s7.002 5.035 7.002-8.725c-1.134-8.057-4.39-15.198-9.179-21.034-4.421-5.046-6.821-2.326-6.821-2.326-1.613-7.333-3.375-13.438-5.472-19.385-1.861-7.868-3.13-18.216-3.13-28.86 0-6.347 0.451-12.589 1.323-18.694 2.638-6.661 28.398-16.421 34.958-20.261l21.6-12.96c-6.525-3.342-12.149-7.229-17.196-11.747zM875.52 362.4c-2.822 5.274-6.347 9.769-10.52 13.564-11.783 8.018-25.749 16.454-40.146 24.192-10.135 4.644-34.615 12.804-37.655 22.244-0.941 5.597-1.479 12.045-1.479 18.618 0 10.44 1.357 20.564 3.904 30.204 1.403 4.109 2.956 10.354 4.139 16.728s2.396-1.71 7.036 3.41c4.73 5.762 7.986 12.903 9.094 20.736 0.026 13.984-6.854 9.504-6.854 9.504 1.534 5.856 2.415 12.58 2.415 19.509 0 9.643-1.706 18.887-4.833 27.447-7.76 17.118-25.043 29.287-45.212 29.683-0.103 0.001-0.165 0.001-0.227 0.001-20.478 0-38.616-10.019-49.781-25.422-3.251-11.223-5.049-23.906-5.049-37.009 0-3.931 0.162-7.825 0.479-11.674s-6.274 2.265-6.914-1.895c-0.090-1.237-0.141-2.679-0.141-4.134 0-5.995 0.87-11.786 2.49-17.255 6.131-15.571 13.491-8.851 13.491-8.851s5.28-21.12 6.88-25.6c1.632-9.787 2.564-21.063 2.564-32.557 0-4.082-0.118-8.136-0.349-12.159-2.854-8.564-41.574-23.764-59.814-33.524 15.297-8.497 28.156-16.758 40.466-25.728 4.54-4.562 9.002-11.080 11.889-18.392 4.678-12.398 7.314-26.314 7.314-40.846 0-2.080-0.054-4.148-0.161-6.201 8.172 0.287 16.012 0.287 20.972 0.287 26.56 0 115.36-1.44 136 25.28 10.080 13.44 0 39.84 0 39.84zM667.52 346.4c-5.6 4.8-54.56 32-65.28 36.96s-42.24 19.52-45.12 27.2c-1.072 7.897-1.683 17.025-1.683 26.296 0 15.282 1.662 30.176 4.816 44.511 1.956 5.397 4.118 13.951 5.769 22.686s3.418-2.453 9.658 4.587c6.468 7.872 10.923 17.63 12.444 28.333 0.036 19.187-9.404 13.107-9.404 13.107s9.6 41.6-3.2 64c-10.99 24.312-34.854 41.013-62.665 41.439-0.166 0.001-0.298 0.001-0.43 0.001-28.113 0-53.024-13.706-68.417-34.8-9.287-16.241-6.407-67.121-6.407-67.121s-8.64 2.4-9.44-3.2c-0.106-1.572-0.167-3.407-0.167-5.257 0-8.335 1.23-16.382 3.519-23.97 8.488-21.173 18.728-12.213 18.728-12.213s7.36-28.96 9.44-35.040c2.302-13.563 3.617-29.186 3.617-45.117 0-5.404-0.151-10.773-0.45-16.102-4.607-14.301-82.687-41.981-94.047-53.341s-37.92-64-28.16-80c20.96-34.72 112.8-39.040 150.4-38.24s159.36-1.12 187.84 34.88c13.92 17.92 0 54.72 0 54.72-2.601 6.369-6.285 11.799-10.874 16.314z" />
<glyph unicode="&#xe932;" glyph-name="icons_multiply" d="M115.84 448l99.52 43.36 291.68-126.88 301.6 131.52 99.52-43.36-401.12-174.4zM115.84 624.96l401.12 175.040 391.2-170.24-401.12-174.56zM507.040 188l295.52 128 105.6-45.92-401.12-174.080-391.2 170.24 105.6 45.92z" />
<glyph unicode="&#xe933;" glyph-name="icons_off-hold" d="M800 336v156.8l150.88 87.040-22.88 41.6-128-73.28-643.52-371.36 24-41.6 155.52 90.080 1.92-4c4.344-10.529 8.634-19.207 13.416-27.569l1.784-3.791c42.114-72.891 119.675-121.155 208.509-121.155 132.548 0 240 107.452 240 240 0 1.306-0.010 2.61-0.031 3.912-0.263 5.355-0.835 10.53-1.705 15.603l0.108 7.721zM758.080 313.92c0-106.039-85.961-192-192-192-96 0-140.32 47.040-186.88 128l332.48 192c7.139-3.074 13.24-7.227 18.406-12.326 34.874-34.714 28.474-63.514 28.474-116.154zM800 603.68l-80-46.24v98.56c0 22.091 17.909 40 40 40s40-17.909 40-40v-51.84zM226.56 453.76c-2.7 5.242-4.283 11.441-4.283 18.008 0 22.091 17.909 40 40 40 15.718 0 29.319-9.066 35.858-22.255l54.985-110.633c2.399-5.999 8.161-10.16 14.896-10.16 8.583 0 15.588 6.759 15.982 15.245 0.015 0.274 0.023 0.554 0.023 0.835s-0.008 0.561-0.023 0.839l0.002-0.039v334.4c0 22.091 17.909 40 40 40s40-17.909 40-40v-215.52s0 0 0-0.96c0-8.837 7.163-16 16-16s16 7.163 16 16 0 0 0 0.96v0 279.52c0 22.091 17.909 40 40 40s40-17.909 40-40v-265.6c0-8.837 7.163-16 16-16s16 7.163 16 16v0 233.6c0 22.091 17.909 40 40 40s40-17.909 40-40v-212.96l-392.48-227.040z" />
<glyph unicode="&#xe934;" glyph-name="icons_phone" d="M670.56 100.96c-55.84 0-98.080 23.2-135.52 43.84-54.772 32.411-102.046 69.5-143.927 111.925-15.113 14.155-27.113 25.995-35.273 34.315s-19.84 20.64-34.080 35.36c-42.86 41.96-80.257 89.234-111.195 140.825-23.205 42.055-47.365 86.215-45.445 145.255 0.147 21.821 4.243 42.643 11.606 61.845 6.634 15.595 23.914 33.355 57.994 68.715v0c28.16 29.12 44.16 44.64 69.76 49.44 4.799 1.332 10.31 2.097 16 2.097s11.201-0.765 16.436-2.199c28.204-8.538 141.644-140.698 148.524-166.778 1.014-3.252 1.598-6.992 1.598-10.868 0-11.265-4.933-21.379-12.758-28.297s-23.080-21.475-75.56-75.235l-2.4-2.72c-1.756-2.114-3.396-4.468-4.83-6.956-0.922-3.554-1.377-7.354-1.377-11.261 0-5.205 0.807-10.222 2.303-14.932 30.144-65.822 82.053-117.732 146.383-147.215 6.184-2.185 11.183-3.009 16.375-3.009 3.926 0 7.742 0.471 11.395 1.361 2.403 1.493 4.758 3.133 6.953 4.958l2.479 2.814c53.6 52.48 74.88 75.2 75.2 75.52 4.5 4.987 10.216 8.794 16.683 10.96 3.631 1.096 7.485 1.68 11.477 1.68s7.846-0.585 11.483-1.673c25.157-6.647 157.157-120.247 165.957-148.727 1.335-4.799 2.103-10.31 2.103-16s-0.768-11.201-2.205-16.435c-4.698-25.165-20.218-41.005-49.338-69.165-35.36-34.080-53.12-51.36-69.92-58.4-17.997-6.957-38.819-11.053-60.578-11.2h-6.302zM310.72 733.44c-8.64 0-16-7.040-29.76-21.76-20.081-19.11-38.078-40.054-53.842-62.67-5.353-13.615-7.942-27.798-7.942-42.585 0-8.043 0.766-15.907 2.228-23.523 4.036-31.223 15.876-51.863 36.516-86.743 24.381-39.505 50.784-73.796 80.301-105.122 17.939-20.158 37.139-39.998 56.659-58.878s39.2-39.040 59.52-57.28c30.998-29.232 65.291-55.637 102.063-78.421 37.617-22.219 58.897-33.579 90.257-38.219 6.839-1.338 14.703-2.104 22.745-2.104 14.787 0 28.969 2.588 42.119 7.336 23.087 16.357 44.032 34.355 62.974 54.276 14.882 13.932 21.762 21.292 21.922 29.932-0.691 6.023-2.745 11.456-5.845 16.136-4.395 8.024-10.795 17.144-45.515 46.584-16 13.12-30.4 24.32-40 32s-19.36 14.4-23.68 16c-9.678-7.339-18.053-15.662-25.211-24.97-8.549-9.27-18.949-20.63-32.229-34.71-10.791-13.2-24.998-23.227-41.279-28.77-7.297-1.837-14.939-2.782-22.801-2.782s-15.504 0.945-22.817 2.728c-13.881 2.493-26.87 7.111-38.772 13.492-13.542 7.67-25.562 15.504-37.052 24.013-32.49 27.55-62.488 57.547-89.801 89.885-8.697 11.556-16.477 23.472-23.527 35.858-7.013 13.021-11.686 26.116-14.225 39.957-1.768 7.5-2.71 15.17-2.71 23.060s0.942 15.559 2.721 22.902c5.607 16.12 15.57 30.211 28.504 40.81 14.241 13.888 25.601 24.288 34.561 32.128 9.435 7.484 17.605 15.96 24.545 25.396-2.145 4.684-9.825 14.924-15.745 24.044-10.4 13.92-21.28 27.84-32 40-29.28 34.72-38.4 41.28-46.72 45.6-4.577 2.895-9.986 4.93-15.788 5.736l-0.212 0.024zM822.72 269.44c2.159-4.616 3.881-9.982 4.899-15.594 0.405 1.085 0.601 2.796 0.601 4.554s-0.197 3.469-0.57 5.114c-1.455 2.137-3.091 4.129-4.924 5.919zM678.72 391.36h-1.92c-1.408-0.57-2.59-1.444-3.509-2.546l-0.011-0.014c2.857 0.869 6.14 1.369 9.54 1.369 0.866 0 1.724-0.032 2.573-0.096l1.167 0.007-4 1.76c-0.073 0.002-0.158 0.002-0.244 0.002-1.224 0-2.407-0.176-3.524-0.505zM452.64 622.88s0-1.12 0-1.76c0.060-0.749 0.095-1.621 0.095-2.502 0-3.741-0.62-7.337-1.764-10.692l1.349 1.353c1.111 0.934 1.984 2.115 2.538 3.46 0.242 0.827 0.369 1.708 0.369 2.62s-0.127 1.793-0.364 2.628c-0.638 1.843-1.395 3.481-2.295 5.025zM318.080 763.84c5.452-1.065 10.274-2.614 14.829-4.652-2.155 1.586-4.096 2.863-6.165 3.926-1.925 0.599-3.925 0.894-5.994 0.894-0.942 0-1.869-0.061-2.778-0.18z" />
<glyph unicode="&#xe935;" glyph-name="icons_play" d="M512 768c-176.731 0-320-143.269-320-320s143.269-320 320-320c176.731 0 320 143.269 320 320s-143.269 320-320 320zM512 180.32c-147.836 0-267.68 119.844-267.68 267.68s119.844 267.68 267.68 267.68c147.836 0 267.68-119.844 267.68-267.68-0.182-147.763-119.918-267.498-267.663-267.68zM434.080 312.16l222.88 135.36-222.88 136.32v-271.68z" />
<glyph unicode="&#xe936;" glyph-name="icons_plus" d="M272 480h496v-48h-496v48zM544 704v-496h-48v496h48z" />
<glyph unicode="&#xe937;" glyph-name="icons_portfolio" d="M816 656h-124c-21.115 46.364-57.476 82.725-102.552 103.313l-19.528 18.767h-131.84l-18.24-18.24c-46.364-21.115-82.725-57.476-103.313-102.552l-156.527-1.288v-528h704v528h-48zM707.68 448h-35.68v48h-96v-48h-128v48h-96v-48h-35.68l-89.76 160h570.88zM442.88 714.88c14.787 7.993 32.121 13.365 50.529 15.003l26.591 0.037c16.328-1.966 31.151-6.831 44.489-14.083l59.511-59.837h-240zM208 176v366.88l80-142.88h64v-48h96v48h128v-48h96v48h64l80 142.72v-366.72h-608z" />
<glyph unicode="&#xe938;" glyph-name="icons_pound" d="M309.76 463.040h48c-13.844 24.312-22.005 53.416-22.005 84.427 0 4.918 0.205 9.789 0.608 14.603 1.866 20.879 7.566 40.643 16.394 58.592 18.162 35.332 47.757 63.791 83.901 80.482 23.727 10.467 50.112 16.294 77.859 16.294 6.777 0 13.473-0.348 20.071-1.026 25.253-1.211 80.293-4.091 123.333-44.731 12.2-11.571 22.452-25.040 30.317-39.962l-73.837-43.078c-17.892 23.718-44.575 39.981-75.118 43.941-4.050 0.521-8.084 0.784-12.178 0.784-45.64 0-83.637-32.721-91.812-75.983-0.829-5.152-1.25-10.42-1.25-15.787 0-20.013 5.86-38.657 15.958-54.31 5.36-9.199 11.886-17.456 19.405-24.69l129.477-0.035v-59.84h-97.76c3.987-9.749 6.302-21.063 6.302-32.917 0-2.211-0.081-4.403-0.239-6.574-2.896-26.731-16.431-50.124-36.267-65.958 1.811-0.088 4.171-0.051 6.54-0.051 20.704 0 40.759-2.781 59.81-7.99 35.053-9.39 48.653-23.15 74.253-22.030 23.427 2.179 43.994 12.935 58.821 29.055l44.059-76.095c-28.659-25.731-66.749-41.466-108.514-41.466-23.297 0-45.451 4.896-65.489 13.715-57.837 21.031-112.717 31.591-171.917-7.609l-38.88 74.4c28.64 6.186 52.556 22.995 67.912 46.004 10.545 16.318 16.665 35.776 16.665 56.665 0 3.285-0.151 6.535-0.448 9.743-1.31 11.862-4.651 23.070-9.673 33.303l-94.456-0.594v58.72z" />
<glyph unicode="&#xe939;" glyph-name="icons_previous-uploads" d="M912 418.56c-0.577-93.603-74.135-169.84-166.605-174.702l-110.995-0.018c62.225 43.964 102.363 115.6 102.363 196.611 0 55.302-18.705 106.236-50.132 146.819 15.075 3.859 31.927 6.397 49.372 6.397 96.888 0 175.491-78.29 175.998-175.059zM258.24 440.16c0 0.033 0 0.072 0 0.11 0 19.775 2.392 38.991 6.901 57.375-39.181-12.118-69.804-40.317-83.426-76.805-40.392-10.089-69.851-45.5-69.851-87.791 0-47.973 37.905-87.093 85.399-89.044l163.697-0.006c-62.363 43.704-102.65 115.22-102.72 196.149zM498.24 243.68c-0.19-0.001-0.415-0.001-0.64-0.001-108.513 0-196.48 87.967-196.48 196.48s87.967 196.48 196.48 196.48c108.513 0 196.479-87.967 196.48-196.479-0.091-108.444-88.023-196.32-196.48-196.32 0 0 0 0 0 0zM638.88 408c0.001 0.054 0.001 0.117 0.001 0.181 0 8.837-7.163 16-16 16-0.847 0-1.679-0.066-2.491-0.193l-124.39 0.012v80h34.72l-50.72 64-50.4-64h34.4v-112h156.32c0.77-0.131 1.657-0.206 2.561-0.206 8.837 0 16 7.163 16 16 0 0.073 0 0.145-0.001 0.217z" />
<glyph unicode="&#xe93a;" glyph-name="icons_profile" d="M770.24 266.56s21.6-56.96 0-84.64c-44-56.64-233.6-52.64-290.24-53.92s-200.48 5.28-232.8 59.040c-15.040 25.12 26.24 105.44 43.68 123.040s138.24 60.32 145.44 83.68c0.431 7.278 0.677 15.789 0.677 24.358 0 24.391-1.992 48.316-5.822 71.623-2.855 6.9-14.215 51.54-14.215 51.54s-16-13.92-29.12 19.68c-3.229 10.701-5.088 22.999-5.088 35.732 0 3.022 0.105 6.019 0.311 8.989 1.258 8.24 14.538 4.56 14.538 4.56s-4.48 79.2 9.76 103.36c24.116 33.12 62.759 54.4 106.373 54.4 0.122 0 0.244 0 0.366 0 50.061 0 77.101-29.92 96.941-64s4.8-98.4 4.8-98.4 14.56 9.44 14.56-19.68c-2.427-17.041-9.336-32.14-19.484-44.475-9.636-10.725-14.436-4.805-14.436-4.805-2.936-15.671-6.315-28.901-10.433-41.802-3.937-17.166-6.581-39.68-6.581-62.811 0-13.435 0.892-26.662 2.619-39.625 3.995-10.322 23.835-24.082 74.555-42.962l96-57.44c6.432-7.46 12.263-15.791 17.212-24.68z" />
<glyph unicode="&#xe93b;" glyph-name="icons_publish" d="M847.040 736h-669.6c-0.051 0.001-0.111 0.001-0.172 0.001-9.543 0-17.28-7.737-17.28-17.28 0-0.225 0.004-0.45 0.013-0.673l-0.001-443.328c-0.023-0.338-0.036-0.733-0.036-1.13 0-9.508 7.539-17.255 16.966-17.589l287.070-0.001-18.080-56c-4.2-17.847-19.987-30.929-38.831-30.929-0.693 0-1.381 0.018-2.065 0.053l-1.024-0.004c-2.272-0.237-4.028-2.142-4.028-4.457 0-0.177 0.010-0.352 0.030-0.524-0.002-2.539-0.002-3.979 2.238-3.979h202.88c1.575 0.648 2.7 2.094 2.878 3.82 0.020 0.171 0.030 0.346 0.030 0.523 0 2.315-1.756 4.22-4.009 4.456l-0.979 0.002c-0.284-0.007-0.618-0.011-0.954-0.011-19.286 0-35.53 13.024-40.417 30.756l-17.669 56.294h302.080c9.955 0.266 17.923 8.4 17.923 18.394 0 0.115-0.001 0.229-0.003 0.343v443.183c0.090 0.636 0.141 1.371 0.141 2.118 0 8.837-7.163 16-16 16-0.387 0-0.771-0.014-1.152-0.041zM800 304h-592v384h608v-384h-16z" />
<glyph unicode="&#xe93c;" glyph-name="icons_reopen-job" d="M336 384h352v-6.080c-14.175-12.558-26.786-26.287-37.89-41.203l-314.11-0.717v48zM688 480h-352v-48h352v48zM256 752h512v-288l48-13.44v349.44h-608v-512h-144v-48h549.28c1.022 17.499 4.573 33.858 10.299 49.155l-367.579-1.155v464zM886.72 288l-9.12-48h82.4v48h-73.28zM688 576h-352v-48h352v48zM688 672h-352v-48h352v48zM748.64 384c-169.28-119.84-70.56-238.56-70.56-238.56s0 72 123.84 152l40.64-66.080 33.92 171.040-167.84 48z" />
<glyph unicode="&#xe93d;" glyph-name="icons_search" d="M848 151.52l-235.2 234.88c33.692 41.788 54.082 95.53 54.082 154.034 0 136.083-110.317 246.4-246.4 246.4s-246.4-110.317-246.4-246.4c0-136.083 110.317-246.4 246.4-246.4 57.806 0 110.962 19.906 152.989 53.236l234.85-235.271zM232 539.040c0 0.095 0 0.207 0 0.32 0 104.536 84.744 189.28 189.28 189.28s189.28-84.744 189.28-189.28c0-104.536-84.743-189.28-189.28-189.28 0 0 0 0 0 0-104.424 0-189.097 84.561-189.28 188.942z" />
<glyph unicode="&#xe93e;" glyph-name="icons_share-07" d="M718.080 426.56c-39.233-0.018-74.51-16.945-98.94-43.888l-244.1 113.328c0.637 4.193 1.001 9.030 1.001 13.952 0 12.227-2.245 23.93-6.345 34.72l189.344 79.328c13.214-19.854 35.5-32.76 60.8-32.76 40.206 0 72.8 32.594 72.8 72.8s-32.594 72.8-72.8 72.8c-40.206 0-72.8-32.594-72.8-72.8 0-0.070 0-0.141 0-0.211 0.108-3.523 0.453-6.888 1.021-10.177l-193.661-83.252c-18.843 24.431-48.124 40.015-81.045 40.015-56.377 0-102.080-45.703-102.080-102.080s45.703-102.080 102.080-102.080c22.936 0 44.106 7.565 61.15 20.335l-0.265-0.19 251.040-116.32c-0.726-5.238-1.14-11.291-1.14-17.44 0-73.962 59.958-133.92 133.92-133.92s133.92 59.958 133.92 133.92c0 73.955-59.946 133.908-133.899 133.92zM620 705.44c22.622 0 40.96-18.338 40.96-40.96s-18.338-40.96-40.96-40.96c-22.622 0-40.96 18.338-40.96 40.96 0.091 22.585 18.375 40.869 40.951 40.96zM274.080 438.56c-38.704 0-70.080 31.376-70.080 70.080s31.376 70.080 70.080 70.080c38.704 0 70.080-31.376 70.080-70.080 0-0.056 0-0.112 0-0.169-0.091-38.627-31.432-69.911-70.080-69.911 0 0 0 0 0 0zM718.080 190.56c-56.377 0-102.080 45.703-102.080 102.080s45.703 102.080 102.080 102.080c56.377 0 102.080-45.703 102.080-102.080 0-0.056 0-0.112 0-0.169-0.091-56.3-45.759-101.911-102.080-101.911 0 0 0 0 0 0z" />
<glyph unicode="&#xe93f;" glyph-name="icons_share-17" d="M800 640v-576h-576v576h176v-48h-128v-480h480v480h-128v48h176zM488.8 740.96v-420.96h48v419.2l64-64 33.92 33.92-122.72 122.88-122.080-122.080 33.92-33.92z" />
<glyph unicode="&#xe940;" glyph-name="icons_show" d="M514.080 163.36c-200.16 0-402.080 210.4-402.080 284.64 0 82.56 219.68 284.64 402.080 284.64 172.32 0 397.92-202.4 397.92-284.64 0-71.52-209.28-284.64-397.92-284.64zM512 658.4c-0.815 0.011-1.778 0.018-2.742 0.018-115.491 0-209.315-92.771-211.016-207.857 1.344-115.685 95.308-208.818 211.025-208.818 0.961 0 1.921 0.006 2.879 0.019 0.67-0.013 1.632-0.019 2.596-0.019 115.491 0 209.315 92.771 211.016 207.857-1.344 115.685-95.308 208.818-211.025 208.818-0.961 0-1.921-0.006-2.879-0.019zM512 336c-0.479-0.007-1.043-0.011-1.609-0.011-62.944 0-114.065 50.622-114.87 113.375 1.689 17.784 5.423 34.065 10.999 49.465l103.241-46.669-43.2 102.4c13.228 4.302 28.671 7.472 44.615 8.9 63.653 0.060 114.585-50.872 114.585-113.7s-50.932-113.76-113.76-113.76z" />
<glyph unicode="&#xe941;" glyph-name="icons_submit" d="M848 111.040h-672v48h672v-48zM848 447.040h-48v-336h48v336zM224 447.040h-48v-336h48v336zM848 447.040h-672v-48h672v48zM416 687.040h-144v-48h144v48zM752 687.040l-44.96-17.92 96-240 44.96 17.92zM176 447.040l44.32-17.6 96 240-44.32 17.6zM688 567.36h-352v-48h352v48zM416 783.040h-48v-264h48v264zM656 783.040h-48v-264h48v264zM624 783.040h-224v-48h224v48zM752 687.040h-144v-48h144v48zM576 703.040h-128v-32h128v32zM576 639.040h-128v-32h128v32z" />
<glyph unicode="&#xe942;" glyph-name="icons_tick" d="M256 493.6c32.676-14.085 60.851-30.862 86.495-50.747 30.431-25.11 58.43-52.449 83.965-81.978 55.676 65.832 111.653 125.864 171.072 182.307 62.73 57.376 129.64 112.002 199.521 162.789l57.987-45.491c-84.378-63.299-157.526-134.77-220.507-214.631-65.373-89.305-122.622-187.998-169.035-292.568-48.439 58.999-93.484 118.949-142.493 175.363-33.194 36.169-72.506 69.275-115.699 96.837z" />
<glyph unicode="&#xe943;" glyph-name="icons_twitter" d="M846.72 656c-22.902-10.592-49.472-18.355-77.351-21.936 27.005 17.073 48.331 43.483 58.673 74.883-24.824-14.168-54.039-25.715-85.159-32.009-26.901 26.451-62.507 43.112-102.004 43.112-75.906 0-137.44-61.534-137.44-137.44 0-11.084 1.312-21.862 3.789-32.186-114.658 6.982-215.287 61.523-282.669 144.227-12.277-19.097-19.2-42.941-19.2-68.401 0-47.423 24.019-89.237 60.555-113.939-22.347 0.033-43.73 5.915-62.479 16.049s0.725-1.478 0.725-2.118c0.001-66.278 46.916-121.599 109.349-134.565-9.969-3.236-22.441-5.007-35.327-5.007-9.147 0-18.086 0.893-26.734 2.595 18.695-55.314 68.999-94.77 128.714-96.14-46.18-36.61-105.442-58.723-169.868-58.723-0.187 0-0.375 0-0.562 0.001-11.28 0.030-22.394 0.726-33.313 2.053 60.266-37.975 132.186-60.458 209.357-60.458 0.726 0 1.452 0.002 2.177 0.006 252.048 0 390.608 209.28 390.608 390.72q0 8.96 0 17.76c26.863 19.793 49.486 43.486 67.521 70.503z" />
<glyph unicode="&#xe944;" glyph-name="icons_unpublish" d="M208 381.44l-48-27.84v364.48c-0.008 0.192-0.012 0.417-0.012 0.643 0 9.543 7.737 17.28 17.28 17.28 0.117 0 0.233-0.001 0.349-0.003h644.783l-83.2-48h-531.2v-306.56zM864 649.28v-374.56c0.002-0.097 0.003-0.211 0.003-0.326 0-9.994-7.968-18.127-17.898-18.393l-302.105-0.001 17.6-56c5.011-17.946 21.215-30.892 40.443-30.892 0.35 0 0.7 0.004 1.048 0.013l0.908-0.001c2.272-0.237 4.028-2.142 4.028-4.457 0-0.177-0.010-0.352-0.030-0.524-0.118-1.79-1.26-3.307-2.847-3.968l-202.911-0.011c-2.24-0.16-2.24 1.28-2.24 3.84-0.018 0.151-0.028 0.326-0.028 0.503 0 2.315 1.756 4.22 4.009 4.456l0.979 0.002c0.588-0.031 1.277-0.049 1.969-0.049 18.843 0 34.631 13.082 38.777 30.659l18.294 56.43h-281.12l-64-37.12-24 41.6 65.12 37.6 48 27.84 718.080 414.56 24-41.6zM816 621.6l-549.92-317.6h549.92v317.6z" />
<glyph unicode="&#xe945;" glyph-name="icons_upload-computer" d="M847.2 736h-669.6c-0.099 0.002-0.215 0.003-0.332 0.003-9.543 0-17.28-7.737-17.28-17.28 0-0.226 0.004-0.451 0.013-0.675l-0.001-443.328c-0.023-0.337-0.036-0.73-0.036-1.126 0-9.564 7.629-17.346 17.133-17.594h286.903l-18.080-56c-4.2-17.847-19.987-30.929-38.831-30.929-0.693 0-1.381 0.018-2.065 0.053l-1.024-0.004c-2.272-0.237-4.028-2.142-4.028-4.457 0-0.177 0.010-0.352 0.030-0.524-0.002-2.539-0.002-3.979 2.238-3.979h203.040c1.509 0.691 2.571 2.126 2.719 3.823 0.019 0.168 0.030 0.343 0.030 0.52 0 2.315-1.756 4.22-4.009 4.456l-0.979 0.002c-0.284-0.007-0.618-0.011-0.954-0.011-19.286 0-35.53 13.024-40.417 30.756l-17.669 56.294h302.080c9.955 0.266 17.923 8.4 17.923 18.394 0 0.115-0.001 0.229-0.003 0.343v443.183c0.089 0.633 0.139 1.364 0.139 2.108 0 8.837-7.163 16-16 16-0.33 0-0.659-0.010-0.984-0.030zM800 304h-592v384h608v-384h-16zM605.12 419.52h-74.56v56.32h16c0.059-0.002 0.128-0.004 0.197-0.004 1.685 0 3.18 0.814 4.113 2.070 0.097 0.373 0.147 0.786 0.147 1.21 0 1.473-0.603 2.806-1.577 3.763l-34.081 35.201c-0.883 1.152-2.009 2.073-3.305 2.696-1.768-0.593-3.219-1.58-4.367-2.847l-34.088-36.489c-0.366-0.593-0.583-1.311-0.583-2.080s0.217-1.487 0.593-2.097c0.53-1.106 1.592-1.902 2.852-2.061l17.778-0.002v-55.52h-108.16c-18.898 0.901-33.879 16.442-33.879 35.482 0 16.765 11.615 30.818 27.237 34.549 6.639 17.902 22.828 30.702 42.172 32.040 2.642 40.491 36.083 72.38 76.973 72.38 30.424 0 56.724-17.653 69.216-43.276 10.029 5.141 21.795 8.44 34.331 8.44 38.616 0 69.92-31.304 69.92-69.92 0-37.564-29.623-68.21-66.782-69.851z" />
<glyph unicode="&#xe946;" glyph-name="icons_upload" d="M716.96 256h-164.32v123.84h36c0.191-0.011 0.414-0.018 0.638-0.018 3.54 0 6.702 1.619 8.786 4.158 0.196 0.789 0.3 1.672 0.3 2.579 0 3.256-1.333 6.202-3.482 8.32l-75.041 77.441c-1.988 2.872-4.631 5.157-7.722 6.668-3.856-1.284-7.026-3.423-9.542-6.17l-75.056-80.017c-1.426-1.536-2.301-3.601-2.301-5.871 0-1.232 0.258-2.404 0.723-3.465 1.119-2.428 3.425-4.204 6.177-4.58l39.082-0.005v-122.88h-236.16c-41.861 1.599-75.19 35.92-75.19 78.026 0 37.108 25.886 68.169 60.585 76.112 15.090 38.865 50.437 66.589 92.64 69.838 5.446 89.415 79.176 159.981 169.388 159.981 66.828 0 124.612-38.725 152.135-94.959 21.961 11.176 47.699 18.35 75.113 18.35 84.919 0 153.76-68.841 153.76-153.76 0-82.37-64.769-149.612-146.157-153.575z" />
<glyph unicode="&#xe947;" glyph-name="icons_vimeo" d="M863.2 611.36q-4.64-102.56-144-280.96-143.2-186.4-242.080-186.4-61.44 0-104 113.44l-56.8 208q-32 113.44-67.68 113.44-7.84 0-55.2-33.12l-33.44 42.72q52 45.76 102.56 91.52 69.44 60 104.16 63.040 82.080 7.84 100.96-112 20.48-129.6 28.48-161.12 23.68-107.52 52.16-107.52 22.080 0 66.24 69.76t48 106.080q6.24 60.16-48 60.16c-18.89-0.28-36.727-4.494-52.822-11.857q53.142 170.097 199.222 165.457 108.48-3.36 102.24-140.64z" />
<glyph unicode="&#xe948;" glyph-name="icons_PDF" d="M559.040 768h-271.040c-17.673 0-32-14.327-32-32v-576c0-17.673 14.327-32 32-32h448c17.673 0 32 14.327 32 32v399.040zM560 688l128-128h-128v128zM720 192v-16h-416v544h208v-188.8c0-10.604 8.596-19.2 19.2-19.2h188.8v-320z" />
<glyph unicode="&#x0041;" glyph-name="icons_camera"
 d="M888.387,835.383C888.387,835.383,726.219,835.383,726.219,835.383C726.219,835.383,669.696,935.62,669.696,935.62C669.696,935.62,354.304,935.62,354.304,935.62C354.304,935.62,297.781,835.383,297.781,835.383C297.781,835.383,135.613,835.383,135.613,835.383C60.843,835.383,0,774.54,0,699.77C0,699.77,0,224.113,0,224.113C0,149.313,60.843,88.5,135.613,88.5C135.613,88.5,888.387,88.5,888.387,88.5C963.157,88.5,1024,149.313,1024,224.113C1024,224.113,1024,699.77,1024,699.77C1024,774.54,963.157,835.383,888.387,835.383C888.387,835.383,888.387,835.383,888.387,835.383M502.574,262.782C392.036,262.782,302.101,352.717,302.101,463.256C302.101,573.794,392.036,663.73,502.574,663.73C613.113,663.73,703.048,573.794,703.048,463.256C703.048,352.717,613.113,262.782,502.574,262.782C502.574,262.782,502.574,262.782,502.574,262.782"/>
</font>
</defs>
</svg>
