<?xml version="1.0" encoding="UTF-8" standalone="no"?>
<svg width="34px" height="29px" viewBox="0 0 34 29" version="1.1" xmlns="http://www.w3.org/2000/svg" xmlns:xlink="http://www.w3.org/1999/xlink">
    <!-- Generator: Sketch 45 (43475) - http://www.bohemiancoding.com/sketch -->
    <title>Shape</title>
    <desc>Created with Sketch.</desc>
    <defs></defs>
    <g id="CMS-Design" stroke="none" stroke-width="1" fill="none" fill-rule="evenodd">
        <g id="Individual-piece-of-work---NO" transform="translate(-298.000000, -195.000000)" fill-rule="nonzero" fill="#FFFFFF">
            <g id="left" transform="translate(53.000000, 81.000000)">
                <g id="change-thumbnail" transform="translate(201.000000, 114.000000)">
                    <path d="M73.41962,4.25585494 L68.051707,4.25585494 L66.1806862,0.93775 L55.7407569,0.93775 L53.8697361,4.25585494 L48.5018231,4.25585494 C46.0265168,4.25585494 44.0126223,6.26974945 44.0126223,8.74505573 L44.0126223,24.4900492 C44.0126223,26.9653555 46.0265168,28.97925 48.5018231,28.97925 L73.41962,28.97925 C75.8949263,28.97925 77.9088208,26.9653555 77.9088208,24.4900492 L77.9088208,8.74505573 C77.9088208,6.26974945 75.8949263,4.25585494 73.41962,4.25585494 Z M60.6488321,23.2097794 C56.9895479,23.2097794 54.0126223,20.2328537 54.0126223,16.5735695 C54.0126223,12.9146757 56.9895479,9.93775 60.6488321,9.93775 C64.3081163,9.93775 67.285042,12.9146757 67.285042,16.5735695 C67.285042,20.2328537 64.3081163,23.2097794 60.6488321,23.2097794 Z" id="Shape"></path>
                </g>
            </g>
        </g>
    </g>
</svg>